<?xml version="1.0" encoding="UTF-8" standalone="no"?><!DOCTYPE svg PUBLIC "-//W3C//DTD SVG 1.1//EN" "http://www.w3.org/Graphics/SVG/1.1/DTD/svg11.dtd"><svg width="100%" height="100%" viewBox="0 0 64 64" version="1.1" xmlns="http://www.w3.org/2000/svg" xmlns:xlink="http://www.w3.org/1999/xlink" xml:space="preserve" xmlns:serif="http://www.serif.com/" style="fill-rule:evenodd;clip-rule:evenodd;stroke-linejoin:round;stroke-miterlimit:2;"><path d="M64,14l0,36c0,7.727 -6.273,14 -14,14l-36,0c-7.727,0 -14,-6.273 -14,-14l0,-36c0,-7.727 6.273,-14 14,-14l36,0c7.727,0 14,6.273 14,14Z" style="fill:#09090b;"/><path d="M42.763,7.072c1.115,0.806 1.528,2.269 1.021,3.544l-7.35,18.384l13.566,0c1.266,0 2.391,0.787 2.822,1.978c0.431,1.191 0.066,2.522 -0.9,3.328l-27,22.5c-1.059,0.881 -2.569,0.928 -3.684,0.122c-1.116,-0.806 -1.529,-2.269 -1.022,-3.544l7.35,-18.384l-13.566,-0c-1.266,-0 -2.391,-0.788 -2.822,-1.978c-0.431,-1.191 -0.065,-2.522 0.9,-3.328l27,-22.5c1.059,-0.882 2.569,-0.928 3.685,-0.122Z" style="fill:#8b5cf6;fill-rule:nonzero;"/></svg>